<svg width="120" height="120" viewBox="0 0 120 120" fill="none" xmlns="http://www.w3.org/2000/svg">
<path d="M61.035 81.39C55.6205 86.715 48.1939 90 40 90C23.4314 90 10 76.5685 10 60C10 43.4315 23.4314 30 40 30C48.3746 30 55.948 33.4315 61.39 38.9651L68.4615 31.8939C61.209 24.5507 51.136 20 40 20C17.9086 20 0 37.9086 0 60C0 82.0915 17.9086 100 40 100C50.9555 100 60.882 95.596 68.106 88.4615L61.035 81.39Z" fill="#006D77"/>
<path d="M75 45H65V55H55V65H65V75H75V65H85V55H75V45Z" fill="#006D77"/>
<path d="M100 45H110V55H120V65H110V75H100V65H90V55H100V45Z" fill="#006D77"/>
</svg>
