<svg width="120" height="120" viewBox="0 0 120 120" fill="none" xmlns="http://www.w3.org/2000/svg">
<path d="M114.355 0.825C113.88 0.3 113.205 0 112.5 0H7.49999C6.79006 0 6.11999 0.3 5.64491 0.825C5.16983 1.34508 4.93991 2.04492 5.00999 2.74992L15.0101 102.75C15.105 103.725 15.7701 104.56 16.7051 104.87L61.7051 119.87C61.9601 119.96 62.2301 120 62.4951 120C62.7951 120 63.0902 119.945 63.3801 119.84L103.38 104.84C104.27 104.51 104.895 103.695 104.99 102.75L114.99 2.74992C115.06 2.05008 114.83 1.34508 114.355 0.825ZM100.16 100.705L62.445 114.85L19.8199 100.64L10.2551 4.99992H109.73L100.16 100.705Z" fill="#006D77"/>
<path d="M94.41 25.895C93.9349 25.33 93.2299 25.0051 92.4949 25.0051H32.4949C31.1149 25.0051 29.9948 26.1252 29.9948 27.5052C29.9948 28.8852 31.1149 30.0053 32.4949 30.0053H89.52L86.0449 50.0003H34.995C33.615 50.0003 32.4949 51.1204 32.4949 52.5004C32.4949 53.8804 33.615 55.0004 34.995 55.0004H85.1749L80.2748 83.1655L62.4447 89.8506L42.1598 83.0856L39.9447 72.0107C39.6797 70.6607 38.3747 69.7757 37.0047 70.0506C35.6547 70.3206 34.7747 71.6357 35.0447 72.9906L37.5447 85.4905C37.7198 86.3706 38.3547 87.0854 39.2048 87.3704L61.7048 94.8704C61.9598 94.9604 62.2298 95.0005 62.4949 95.0005C62.7949 95.0005 63.09 94.9454 63.375 94.8456L83.3749 87.3456C84.2048 87.0306 84.81 86.3057 84.96 85.4305L94.96 27.9306C95.085 27.2052 94.885 26.4601 94.41 25.895Z" fill="#006D77"/>
</svg>
