<svg width="120" height="120" viewBox="0 0 120 120" fill="none" xmlns="http://www.w3.org/2000/svg">
<path d="M83.4506 113.071V103.079C83.4506 99.3639 82.2852 95.2303 80.4049 91.6497C79.7736 90.4475 79.0359 89.2593 78.1961 88.14C85.1972 86.5191 90.8545 83.7241 95.0539 79.8391C100.702 74.6137 103.396 67.7046 103.396 59.9844C103.396 53.7239 101.103 47.718 97.1674 42.7132C97.7982 40.2649 98.3495 37.18 98.4787 34.1471C98.5615 32.2042 98.4771 30.1569 98.0651 28.2541C97.659 26.3787 96.8739 24.3652 95.3377 22.8057L94.3095 21.7618H92.8443C84.5069 21.7618 78.8293 26.0802 76.0721 28.7301C71.865 27.504 67.3847 26.7851 62.5481 26.7851C57.8436 26.7851 53.2684 27.5036 49.0249 28.7323C46.272 26.0864 40.5956 21.7618 32.2519 21.7618H30.7881L29.7601 22.804C28.2021 24.3835 27.3901 26.3969 26.9679 28.3003C26.5422 30.2193 26.458 32.2693 26.5409 34.2043C26.671 37.242 27.228 40.3024 27.8102 42.6985C23.886 47.7332 21.3987 53.6246 21.3987 59.9844C21.3987 67.7247 24.1435 74.6286 29.8381 79.881C34.0962 83.8084 39.8386 86.6635 46.9456 88.3708C45.8869 89.7651 44.9757 91.289 44.2246 92.8611C42.006 93.1003 39.7833 93.1874 38.2468 93.1874C36.0859 93.1874 35.4354 92.9776 35.1104 92.8071C34.7622 92.6245 34.3122 92.2474 33.0957 90.6262L33.0941 90.624C30.4406 87.0934 27.3179 84.3243 23.171 83.1234L22.849 83.0301L22.5152 82.9997C20.9788 82.8596 18.8147 83.264 17.5111 85.0568C16.7735 86.0713 16.4574 87.3994 16.8051 88.751C17.1246 89.9933 17.9059 90.8902 18.644 91.4891L18.733 91.5614L18.8265 91.6276C20.5428 92.8432 21.5244 94.4484 22.3317 96.4316C22.6614 97.2417 22.9326 98.0354 23.2304 98.9068C23.3142 99.1519 23.4001 99.4032 23.4899 99.6627C23.8679 100.754 24.32 102 24.9348 103.163C27.343 108 32.5374 110.244 37.5013 110.244H41.5026V115.135C19.3957 107.299 3.5 86.1201 3.5 60.9124C3.5 29.1407 28.832 3.5 60 3.5C91.168 3.5 116.5 29.1407 116.5 60.9124C116.5 84.1892 102.925 104.103 83.4506 113.071Z" stroke="#006D77" stroke-width="7"/>
</svg>
