<svg width="120" height="120" viewBox="0 0 120 120" fill="none" xmlns="http://www.w3.org/2000/svg">
<path d="M59.9361 120C59.0492 120 58.1625 119.9 57.44 119.699L19.5568 109.18C17.5896 108.634 15.9699 106.689 15.7889 104.655L6.86113 4.52016C6.75707 3.35039 7.14449 2.19141 7.92355 1.33969C8.70261 0.488438 9.82246 0 10.9962 0H109.004C110.178 0 111.299 0.488906 112.078 1.34133C112.857 2.19352 113.244 3.35297 113.139 4.52227L104.197 104.641C104.015 106.674 102.395 108.618 100.427 109.164L62.4289 119.7C61.7063 119.9 60.8208 120 59.9361 120ZM11.6841 4.78078L20.5507 104.232C20.5751 104.324 20.749 104.533 20.8578 104.581L58.7189 115.092C59.3211 115.26 60.5487 115.26 61.1525 115.092L99.1503 104.557C99.2346 104.517 99.4036 104.316 99.4364 104.199L108.316 4.78078H11.6841V4.78078ZM60.0073 98.2495C59.6461 98.2495 59.1279 98.1056 57.4484 97.6397L35.0391 91.4215C33.0725 90.8763 31.4522 88.9317 31.2711 86.8981L29.8285 70.7079C29.7242 69.5388 30.1116 68.3798 30.8904 67.5279C31.6697 66.6762 32.7898 66.1875 33.964 66.1875H42.9096C45.2147 66.1875 47.1814 67.9861 47.3869 70.2823L47.9513 76.6038C47.9829 76.7133 48.1393 76.8994 48.2414 76.9495L58.7065 79.7754C59.1837 79.9043 59.6208 80.0222 59.9494 80.1105C60.2782 80.0222 60.7158 79.9041 61.1935 79.7749L71.6771 76.9418C71.78 76.8914 71.937 76.7044 71.9686 76.5945L73.0442 64.6003H33.3936C31.0878 64.6003 29.1214 62.8013 28.9165 60.5046L25.7982 25.568C25.7009 24.4723 26.0581 23.4206 26.8036 22.6052C27.589 21.747 28.7368 21.2548 29.952 21.2548H89.9733C89.9735 21.2548 89.974 21.2548 89.9743 21.2548C91.1886 21.2548 92.3356 21.7472 93.121 22.6052C93.867 23.4204 94.2242 24.4727 94.1269 25.5677L93.1153 36.6138C93.0028 37.8441 91.9709 38.7863 90.735 38.7863H44.5739L45.3148 47.0651H87.878C88.9971 47.0651 90.065 47.5317 90.8082 48.345C91.5516 49.1592 91.9198 50.2662 91.8186 51.382L88.5722 87.7397C88.4046 89.6215 86.5971 90.9448 84.8799 91.4212L62.4943 97.6284C60.582 98.1581 60.5616 98.1623 60.4866 98.1795C60.2986 98.2207 60.1686 98.2495 60.0073 98.2495ZM36.3333 86.8193L58.7267 93.0328C59.239 93.1748 59.6546 93.2885 59.9555 93.3701C60.2893 93.278 60.7339 93.1552 61.2174 93.0211L83.6023 86.8141C83.7003 86.7872 83.7896 86.7502 83.8646 86.7129L86.9771 51.8461H45.0537C42.7475 51.8461 40.7803 50.0468 40.576 47.7499L39.751 38.5266C39.6464 37.3566 40.0339 36.1976 40.8127 35.3456C41.5918 34.4939 42.7116 34.0055 43.8856 34.0055H88.5532L89.2833 26.0355H30.6399L33.6551 59.8195H73.7344C74.9086 59.8195 76.0289 60.3084 76.8078 61.1604C77.5866 62.0123 77.9733 63.172 77.8683 64.3416L76.7295 77.0391C76.5467 79.0784 74.918 81.0188 72.9413 81.5527L62.4411 84.39C60.274 84.9755 60.274 84.9755 59.9508 84.9755C59.6269 84.9755 59.6269 84.9755 57.4611 84.3907L46.9791 81.5602C45.0017 81.026 43.3735 79.0852 43.1918 77.0449L42.6493 70.9678H34.6521L36.0319 86.4563C36.0635 86.5713 36.2267 86.7673 36.3333 86.8193Z" fill="#006D77"/>
<path d="M44.7017 12.9087H18.1681C16.8481 12.9087 15.7777 11.8383 15.7777 10.5183C15.7777 9.19832 16.8481 8.12793 18.1681 8.12793H44.7017C46.0217 8.12793 47.0921 9.19832 47.0921 10.5183C47.0921 11.8383 46.0219 12.9087 44.7017 12.9087Z" fill="#006D77"/>
<path d="M54.5023 12.9087H53.546C52.226 12.9087 51.1556 11.8383 51.1556 10.5183C51.1556 9.19832 52.226 8.12793 53.546 8.12793H54.5023C55.8223 8.12793 56.8927 9.19832 56.8927 10.5183C56.8927 11.8383 55.8225 12.9087 54.5023 12.9087Z" fill="#006D77"/>
</svg>
