<svg width="120" height="120" viewBox="0 0 120 120" fill="none" xmlns="http://www.w3.org/2000/svg">
<path d="M12.5503 12.5595L12.558 12.5518L12.5656 12.5441C15.5088 9.58434 18.4448 7.78809 21.979 6.40337C25.3998 5.07588 29.3535 4.14504 35.4363 3.84511C41.7388 3.5785 43.7239 3.5 60 3.5C76.2896 3.5 78.2592 3.56006 84.5585 3.84485C90.6296 4.1447 94.604 5.07676 98.0258 6.40526L98.0376 6.40977C101.563 7.76386 104.48 9.56917 107.433 12.5427L107.441 12.5504L107.448 12.5581C110.407 15.5 112.203 18.4348 113.587 21.967C114.897 25.3762 115.848 29.3756 116.147 35.4284C116.414 41.7312 116.493 43.7161 116.493 59.9925C116.493 76.2817 116.432 78.2516 116.148 84.5506C115.848 90.6101 114.9 94.5919 113.583 98.03C112.229 101.555 110.423 104.472 107.45 107.426L107.442 107.433L107.434 107.441C104.494 110.398 101.56 112.194 98.0296 113.578C94.5916 114.891 90.6119 115.841 84.5641 116.14C78.2613 116.406 76.2764 116.485 60 116.485C43.7108 116.485 41.7409 116.425 35.4419 116.14C29.3844 115.841 25.4033 114.894 21.9659 113.577C18.4517 112.22 15.5168 110.412 12.567 107.442L12.5594 107.435L12.5517 107.427C9.59193 104.484 7.7957 101.548 6.41099 98.0137C5.08383 94.5938 4.15262 90.6215 3.85264 84.556C3.58604 78.2537 3.50754 76.2683 3.50754 59.9925C3.50754 43.7028 3.5676 41.7333 3.8524 35.4338C4.15221 29.3453 5.08393 25.3895 6.41278 21.9667L6.41531 21.9602C7.77186 18.4452 9.58 15.5098 12.5503 12.5595ZM84.4227 7.65259L84.4153 7.65224L84.4079 7.65193C78.157 7.3853 76.1342 7.30379 61.0996 7.30013L60.8519 7.1275H59.7525C44.0627 7.1275 41.8678 7.20651 35.7924 7.4252C35.6482 7.43039 35.5019 7.43566 35.3531 7.44101L35.3287 7.44188L35.3043 7.4431C29.0837 7.75354 25.5747 8.80314 23.1203 9.75575C19.7543 11.0086 17.3854 12.6562 14.9927 15.0489L14.9905 15.0511C12.5905 17.4553 10.941 19.8161 9.70878 23.1897C8.72016 25.6676 7.69985 29.2593 7.37246 35.4244L7.37065 35.4585L7.36951 35.4926C7.35676 35.8725 7.3444 36.2368 7.33244 36.5895C7.1426 42.1888 7.05254 44.8452 7.05254 59.9062C7.05254 75.0034 7.14294 77.6384 7.3336 83.1949C7.34521 83.5334 7.3572 83.8827 7.36956 84.2464L7.37069 84.2798L7.37246 84.3131C7.70013 90.4835 8.72198 94.0858 9.71393 96.5608C10.9363 99.8419 12.5659 102.262 14.9927 104.689C17.4383 107.134 19.799 108.658 23.0676 109.961L23.0813 109.967L23.0949 109.972C25.557 110.93 29.1433 111.981 35.3465 112.316L35.3605 112.317L35.3745 112.318C41.8227 112.614 43.7542 112.692 59.835 112.692C75.9167 112.692 77.8464 112.614 84.2796 112.341L84.2871 112.34L84.2946 112.34C90.5213 112.049 94.1266 110.999 96.5836 110.027C99.8043 108.768 102.22 107.221 104.679 104.788L104.697 104.771L104.714 104.753C107.144 102.28 108.659 99.9174 109.96 96.6945L109.968 96.6742L109.976 96.6538C110.931 94.197 111.985 90.6524 112.32 84.4436L112.321 84.4301L112.321 84.4166C112.617 78.0088 112.696 76.0316 112.696 59.9963C112.696 43.96 112.617 41.9886 112.344 35.5883L112.344 35.581L112.344 35.5736C112.052 29.3574 110.998 25.8031 110.036 23.3384C108.773 20.0817 107.219 17.6766 104.779 15.2364L104.772 15.2298L104.765 15.2233C102.301 12.7851 99.928 11.2284 96.6579 9.96069C94.1932 8.99799 90.6389 7.94404 84.4227 7.65259ZM32.7013 60C32.7013 44.9216 44.9057 32.7013 60 32.7013C75.0784 32.7013 87.2988 44.9056 87.2988 60C87.2988 75.0784 75.0944 87.2987 60 87.2987C44.9216 87.2987 32.7013 75.0944 32.7013 60ZM36.5013 60C36.5013 72.988 47.012 83.4987 60 83.4987C72.988 83.4987 83.4988 72.988 83.4988 60C83.4988 47.012 72.988 36.5013 60 36.5013C47.012 36.5013 36.5013 47.012 36.5013 60ZM95.74 27.9713C95.74 30.0138 94.074 31.675 92.0288 31.675C89.9767 31.675 88.325 30.0219 88.325 27.9713C88.325 25.95 89.9885 24.2825 92.0288 24.2825C94.0738 24.2825 95.74 25.9547 95.74 27.9713Z" stroke="#006D77" stroke-width="7"/>
</svg>
