<svg width="120" height="120" viewBox="0 0 120 120" fill="none" xmlns="http://www.w3.org/2000/svg">
<path d="M59.4057 22.2348C53.8609 26.1346 47.5765 30.5549 44.2094 37.8678C38.3609 50.6256 56.1771 64.5424 56.9384 65.1286C57.1155 65.2651 57.3271 65.3328 57.5384 65.3328C57.7627 65.3328 57.9873 65.2561 58.1699 65.1034C58.5236 64.8075 58.6239 64.3051 58.4115 63.8959C58.3469 63.7716 51.952 51.3499 52.1896 42.438C52.2738 39.3346 56.6174 35.8137 61.2159 32.0858C65.4277 28.6715 70.2017 24.8016 72.9952 20.2747C79.1273 10.31 72.3118 0.511762 72.2421 0.414188C71.9714 0.0341241 71.4718 -0.103974 71.0445 0.0836977C70.6176 0.271763 70.3811 0.733663 70.4787 1.18966C70.4925 1.25419 71.818 7.73377 68.1299 14.4093C66.61 17.1677 63.2717 19.5162 59.4057 22.2348Z" fill="#006D77"/>
<path d="M82.7663 26.6288C83.1574 26.3341 83.2722 25.7967 83.0354 25.3678C82.7985 24.939 82.2827 24.7497 81.8248 24.9236C80.8829 25.2817 58.7585 33.8095 58.7585 44.1141C58.7585 51.2169 61.7927 54.9696 64.0082 57.7099C64.8773 58.7844 65.6276 59.7125 65.8747 60.5049C66.5707 62.7884 64.9217 66.9156 64.2285 68.3131C64.0286 68.7152 64.1266 69.2019 64.4665 69.4954C64.6503 69.654 64.8796 69.7342 65.1094 69.7342C65.305 69.7342 65.5013 69.676 65.6709 69.558C66.0513 69.2932 74.9679 62.9891 73.3685 55.3937C72.7729 52.507 71.3541 50.3974 70.1022 48.536C68.1629 45.6525 66.7623 43.5692 68.8872 39.7218C71.3777 35.2349 82.6526 26.7142 82.7663 26.6288Z" fill="#006D77"/>
<path d="M25.1763 69.8983C24.797 71.0334 24.9761 72.1606 25.6937 73.1572C28.0921 76.4865 36.5873 78.3204 49.6157 78.3204C49.6165 78.3204 49.6169 78.3204 49.6173 78.3204C51.3827 78.3204 53.2464 78.2857 55.1554 78.2173C75.9853 77.4713 83.7113 70.9823 84.03 70.7065C84.3774 70.4059 84.4703 69.905 84.2543 69.4998C84.0383 69.0949 83.5725 68.8915 83.1275 69.0139C75.7918 71.0169 62.0929 71.7278 52.5913 71.7278C41.9594 71.7278 36.5448 70.9622 35.2193 70.3968C35.8996 69.4628 40.0948 67.795 45.2934 66.7724C45.7903 66.6749 46.1318 66.2161 46.0826 65.7121C46.0334 65.2081 45.6101 64.8237 45.1037 64.8237C42.0561 64.8241 26.7737 65.0688 25.1763 69.8983Z" fill="#006D77"/>
<path d="M94.8776 63.2155C90.5812 63.2155 86.5072 65.3684 86.3356 65.46C85.9382 65.6729 85.7368 66.1285 85.8458 66.566C85.9552 67.0031 86.3482 67.3104 86.7991 67.3108C86.8904 67.3112 95.9635 67.3851 96.7854 72.5691C97.5133 77.0414 88.2005 84.2878 84.5506 86.7027C84.1563 86.9636 84.0033 87.468 84.1862 87.9035C84.3417 88.2745 84.7032 88.5067 85.0927 88.5067C85.1608 88.5067 85.2296 88.4996 85.2981 88.4846C86.1645 88.2997 106.487 83.8216 104.338 71.9888C103.027 64.7373 98.4697 63.2155 94.8776 63.2155Z" fill="#006D77"/>
<path d="M80.9407 85.2548C81.0115 84.8755 80.8538 84.4899 80.5382 84.2688L75.6654 80.8557C75.4278 80.6893 75.1276 80.637 74.8487 80.7109C74.7979 80.7243 69.7021 82.0636 62.3038 82.8851C59.3675 83.2144 56.0788 83.3883 52.7923 83.3883C45.396 83.3883 40.5599 82.5192 39.8556 81.8818C39.7624 81.7028 39.7919 81.6213 39.8084 81.5761C39.9363 81.22 40.622 80.7971 41.0642 80.6299C41.5525 80.4493 41.8157 79.9189 41.6639 79.4208C41.5124 78.9227 40.9989 78.6292 40.4922 78.7512C35.6041 79.9307 33.2139 81.5804 33.3878 83.6539C33.6967 87.3298 42.2119 89.2167 49.4107 89.716C50.4459 89.7868 51.5656 89.823 52.7377 89.823C52.7384 89.823 52.7388 89.823 52.7396 89.823C64.7101 89.823 80.0559 86.0672 80.2093 86.0291C80.5839 85.9366 80.8695 85.6341 80.9407 85.2548Z" fill="#006D77"/>
<path d="M44.2035 93.1453C44.5726 92.9049 44.7362 92.4489 44.6052 92.0287C44.4746 91.6085 44.0815 91.3327 43.6401 91.3382C42.985 91.3555 37.2302 91.6152 36.8273 95.2793C36.7053 96.3743 37.0189 97.3744 37.7597 98.2522C39.8261 100.701 45.4035 102.156 54.8083 102.702C55.921 102.768 57.0509 102.802 58.1679 102.802C70.1246 102.802 78.1772 99.0583 78.5144 98.899C78.8413 98.7444 79.0569 98.4233 79.0762 98.0621C79.0955 97.7013 78.9153 97.3587 78.6068 97.1702L72.4487 93.4109C72.235 93.2806 71.9793 93.2374 71.7354 93.2873C71.6964 93.2956 67.7864 94.1065 61.8856 94.9079C60.769 95.0594 59.3707 95.1365 57.73 95.1365C51.8355 95.1365 45.2792 94.1734 44.0217 93.5431C44.0036 93.4246 44.0269 93.2751 44.2035 93.1453Z" fill="#006D77"/>
<path d="M52.5956 114.105C79.9831 114.082 94.6824 109.211 97.514 106.147C98.5165 105.062 98.6247 104.035 98.5393 103.365C98.3288 101.715 96.8263 100.705 96.6555 100.595C96.2444 100.331 95.6928 100.4 95.3721 100.77C95.0523 101.14 95.0448 101.68 95.3658 102.05C95.5385 102.272 95.6385 102.644 95.1333 103.149C94.0014 104.206 82.5837 107.416 63.5734 108.38C60.9692 108.515 58.2379 108.584 55.4555 108.584C38.4345 108.584 25.9777 106.253 24.3426 104.894C24.9733 103.989 29.379 102.542 34.0649 101.724C34.5929 101.632 34.9498 101.134 34.8679 100.605C34.7861 100.075 34.2978 99.7102 33.7643 99.7799C33.6321 99.7976 33.184 99.8251 32.6643 99.8566C24.9328 100.329 15.9981 101.381 15.5319 105.364C15.3902 106.579 15.751 107.68 16.6044 108.639C18.6924 110.985 24.6943 114.105 52.5944 114.105C52.5952 114.105 52.5952 114.105 52.5956 114.105Z" fill="#006D77"/>
<path d="M102.894 107.01C102.506 106.831 102.049 106.922 101.76 107.233C101.719 107.276 97.6021 111.582 85.2217 114.111C80.4819 115.06 71.585 115.542 58.7781 115.542C45.9472 115.542 33.7383 115.037 33.6164 115.032C33.1065 115.007 32.6702 115.378 32.6009 115.88C32.5313 116.382 32.8547 116.854 33.3473 116.972C33.4743 117.002 46.2694 120 63.7642 120C72.1551 120 80.3202 119.318 88.0332 117.973C102.415 115.452 103.422 108.321 103.457 108.019C103.507 107.596 103.28 107.189 102.894 107.01Z" fill="#006D77"/>
</svg>
