<svg width="120" height="120" viewBox="0 0 120 120" fill="none" xmlns="http://www.w3.org/2000/svg">
<path d="M5.40723 116.236V41.9731H26.3684V116.236H5.40723Z" stroke="#006D77" stroke-width="7"/>
<path d="M28.2803 15.8789V15.8791C28.2803 22.7058 22.7215 28.2648 15.8965 28.2648C9.06182 28.2648 3.5 22.7034 3.5 15.8791C3.5 9.05996 9.06049 3.5 15.8965 3.5C22.7231 3.5 28.2806 9.0574 28.2803 15.8789Z" stroke="#006D77" stroke-width="7"/>
<path d="M64.5419 45.4351V54.4238L70.6204 47.8019C74.3575 43.7306 80.6006 40.0497 89.208 40.0497C101.781 40.0497 108.203 44.4939 111.764 50.5329C115.554 56.959 116.5 65.8174 116.5 75.3499V116.236H95.5826V80.1732C95.5826 75.0308 95.434 69.6508 93.6889 65.554C92.7644 63.3834 91.3391 61.4248 89.1679 60.0476C87.0166 58.683 84.433 58.0794 81.5083 58.0794C76.3281 58.0794 71.8952 59.5718 69.0145 63.7041C66.3661 67.503 65.5089 72.9208 65.5089 79.5093V116.236H44.6004V41.9732H64.5419V45.4351Z" stroke="#006D77" stroke-width="7"/>
</svg>
