<svg width="1360" height="768" viewBox="0 0 1360 768" fill="none" xmlns="http://www.w3.org/2000/svg">
<rect width="1360" height="768" fill="black"/>
<path d="M452.95 299.304L457.739 300.741L457.742 300.733L457.744 300.724L452.95 299.304ZM449.494 310.824L444.705 309.387L442.774 315.824H449.494V310.824ZM472.662 310.824V315.824H479.382L477.451 309.387L472.662 310.824ZM469.206 299.304L464.412 300.724L464.414 300.733L464.417 300.741L469.206 299.304ZM461.27 271.4L466.121 270.187L465.174 266.4H461.27V271.4ZM460.758 271.4V266.4H456.854L455.907 270.187L460.758 271.4ZM456.918 285.48L452.124 284.06L452.112 284.101L452.1 284.142L456.918 285.48ZM426.198 345L421.45 343.434L419.284 350H426.198V345ZM453.846 261.16V256.16H450.23L449.098 259.594L453.846 261.16ZM468.694 261.16L473.442 259.594L472.31 256.16H468.694V261.16ZM496.342 345V350H503.256L501.09 343.434L496.342 345ZM482.774 345L477.982 346.427L479.046 350H482.774V345ZM475.606 320.936L480.398 319.509L479.334 315.936H475.606V320.936ZM446.422 320.936V315.936H442.694L441.63 319.509L446.422 320.936ZM439.254 345V350H442.982L444.046 346.427L439.254 345ZM448.161 297.867L444.705 309.387L454.283 312.261L457.739 300.741L448.161 297.867ZM449.494 315.824H472.662V305.824H449.494V315.824ZM477.451 309.387L473.995 297.867L464.417 300.741L467.873 312.261L477.451 309.387ZM474 297.884C472.635 293.276 471.269 288.668 469.904 284.06L460.316 286.9C461.681 291.508 463.047 296.116 464.412 300.724L474 297.884ZM469.904 284.06C468.56 279.522 467.298 274.898 466.121 270.187L456.419 272.613C457.631 277.459 458.93 282.222 460.316 286.9L469.904 284.06ZM461.27 266.4H460.758V276.4H461.27V266.4ZM455.907 270.187C454.73 274.898 453.468 279.522 452.124 284.06L461.712 286.9C463.098 282.222 464.397 277.459 465.609 272.613L455.907 270.187ZM452.1 284.142C450.828 288.722 449.513 293.303 448.156 297.884L457.744 300.724C459.117 296.089 460.448 291.454 461.736 286.818L452.1 284.142ZM430.946 346.566L458.594 262.726L449.098 259.594L421.45 343.434L430.946 346.566ZM453.846 266.16H468.694V256.16H453.846V266.16ZM463.946 262.726L491.594 346.566L501.09 343.434L473.442 259.594L463.946 262.726ZM496.342 340H482.774V350H496.342V340ZM487.566 343.573L480.398 319.509L470.814 322.363L477.982 346.427L487.566 343.573ZM475.606 315.936H446.422V325.936H475.606V315.936ZM441.63 319.509L434.462 343.573L444.046 346.427L451.214 322.363L441.63 319.509ZM439.254 340H426.198V350H439.254V340ZM524.836 345H519.836V350H524.836V345ZM524.836 261.16V256.16H519.836V261.16H524.836ZM537.508 261.16H542.508V256.16H537.508V261.16ZM537.508 334.248H532.508V339.248H537.508V334.248ZM577.828 334.248H582.828V329.248H577.828V334.248ZM577.828 345V350H582.828V345H577.828ZM529.836 345V261.16H519.836V345H529.836ZM524.836 266.16H537.508V256.16H524.836V266.16ZM532.508 261.16V334.248H542.508V261.16H532.508ZM537.508 339.248H577.828V329.248H537.508V339.248ZM572.828 334.248V345H582.828V334.248H572.828ZM577.828 340H524.836V350H577.828V340ZM616.178 343.336L614.217 347.936L614.25 347.949L614.282 347.963L616.178 343.336ZM602.354 334.12L598.55 330.875L595.52 334.428L598.857 337.693L602.354 334.12ZM609.778 325.416L613.165 321.738L609.345 318.219L605.974 322.171L609.778 325.416ZM620.786 332.712L618.703 337.257L618.742 337.275L618.782 337.293L620.786 332.712ZM646.13 332.2L649.149 336.185L649.158 336.179L649.167 336.172L646.13 332.2ZM649.33 318.504L644.858 320.74L644.912 320.849L644.972 320.955L649.33 318.504ZM646.386 314.92L643.263 318.824L643.263 318.824L646.386 314.92ZM641.778 312.232L639.628 316.746L639.718 316.789L639.808 316.828L641.778 312.232ZM635.89 309.672L633.855 314.239L633.943 314.278L634.033 314.314L635.89 309.672ZM624.114 304.424L626.149 299.857L626.061 299.818L625.971 299.782L624.114 304.424ZM617.714 301.352L615.142 305.639L615.206 305.678L615.271 305.715L617.714 301.352ZM611.954 296.872L608.333 300.32L608.375 300.364L608.418 300.408L611.954 296.872ZM607.73 290.728L603.134 292.698L603.177 292.798L603.225 292.897L607.73 290.728ZM608.242 273.448L612.741 275.629L612.741 275.629L608.242 273.448ZM614.002 266.152L610.879 262.248L610.846 262.274L610.814 262.3L614.002 266.152ZM622.962 261.416L624.507 266.171L624.543 266.16L624.578 266.148L622.962 261.416ZM660.722 270.12L664.603 273.273L667.446 269.773L664.258 266.584L660.722 270.12ZM654.066 278.312L650.773 282.075L654.676 285.49L657.947 281.465L654.066 278.312ZM645.106 272.808L643.121 277.397L643.195 277.429L643.27 277.459L645.106 272.808ZM623.09 273.704L620.172 269.644L620.141 269.666L620.111 269.689L623.09 273.704ZM620.274 286.504L615.916 288.955L616.009 289.12L616.114 289.278L620.274 286.504ZM623.602 289.96L620.602 293.96L620.684 294.022L620.769 294.08L623.602 289.96ZM628.21 292.52L626.158 297.08L626.292 297.14L626.43 297.192L628.21 292.52ZM633.714 294.696L635.721 290.116L635.664 290.092L635.607 290.068L633.714 294.696ZM645.106 299.688L643.099 304.268L643.199 304.311L643.301 304.351L645.106 299.688ZM652.402 303.272L649.781 307.53L649.842 307.567L649.903 307.603L652.402 303.272ZM658.162 307.88L654.454 311.235L654.538 311.327L654.626 311.416L658.162 307.88ZM662.13 314.024L657.476 315.852L657.488 315.881L657.5 315.91L662.13 314.024ZM661.49 331.56L666.037 333.639L666.037 333.639L661.49 331.56ZM655.474 339.368L652.261 335.537L652.261 335.537L655.474 339.368ZM645.874 344.616L647.487 349.349L647.487 349.349L645.874 344.616ZM633.074 341.536C627.615 341.536 622.633 340.578 618.074 338.709L614.282 347.963C620.134 350.361 626.416 351.536 633.074 351.536V341.536ZM618.138 338.736C613.5 336.759 609.414 334.034 605.851 330.547L598.857 337.693C603.315 342.057 608.445 345.475 614.217 347.936L618.138 338.736ZM606.158 337.365L613.582 328.661L605.974 322.171L598.55 330.875L606.158 337.365ZM606.391 329.094C610.028 332.444 614.14 335.166 618.703 337.257L622.869 328.167C619.24 326.503 616.013 324.361 613.165 321.738L606.391 329.094ZM618.782 337.293C623.529 339.37 628.566 340.4 633.842 340.4V330.4C629.902 330.4 626.235 329.638 622.79 328.131L618.782 337.293ZM633.842 340.4C639.77 340.4 645.116 339.241 649.149 336.185L643.111 328.215C641.512 329.425 638.666 330.4 633.842 330.4V340.4ZM649.167 336.172C653.242 333.056 655.482 328.758 655.482 323.624H645.482C645.482 325.487 644.82 326.907 643.093 328.228L649.167 336.172ZM655.482 323.624C655.482 320.974 654.987 318.362 653.688 316.053L644.972 320.955C645.209 321.377 645.482 322.178 645.482 323.624H655.482ZM653.802 316.268C652.772 314.209 651.312 312.458 649.509 311.016L643.263 318.824C644.02 319.43 644.522 320.069 644.858 320.74L653.802 316.268ZM649.509 311.016C647.819 309.663 645.878 308.549 643.748 307.636L639.808 316.828C641.262 317.451 642.393 318.129 643.263 318.824L649.509 311.016ZM643.928 307.718C642.026 306.812 639.964 305.917 637.747 305.03L634.033 314.314C636.082 315.134 637.946 315.945 639.628 316.746L643.928 307.718ZM637.925 305.105L626.149 299.857L622.079 308.991L633.855 314.239L637.925 305.105ZM625.971 299.782C624.051 299.014 622.113 298.085 620.157 296.989L615.271 305.715C617.581 307.008 619.91 308.128 622.257 309.066L625.971 299.782ZM620.286 297.065C618.493 295.988 616.898 294.745 615.49 293.336L608.418 300.408C610.423 302.412 612.668 304.156 615.142 305.639L620.286 297.065ZM615.575 293.424C614.24 292.022 613.126 290.409 612.235 288.559L603.225 292.897C604.553 295.655 606.255 298.138 608.333 300.32L615.575 293.424ZM612.326 288.758C611.612 287.094 611.194 285.052 611.194 282.536H601.194C601.194 286.164 601.8 289.583 603.134 292.698L612.326 288.758ZM611.194 282.536C611.194 280.021 611.717 277.741 612.741 275.629L603.743 271.267C602.036 274.787 601.194 278.566 601.194 282.536H611.194ZM612.741 275.629C613.786 273.475 615.252 271.608 617.19 270.004L610.814 262.3C607.803 264.792 605.429 267.789 603.743 271.267L612.741 275.629ZM617.125 270.056C619.172 268.419 621.613 267.112 624.507 266.171L621.417 256.661C617.485 257.939 613.952 259.789 610.879 262.248L617.125 270.056ZM624.578 266.148C627.493 265.152 630.779 264.624 634.482 264.624V254.624C629.822 254.624 625.428 255.29 621.346 256.684L624.578 266.148ZM634.482 264.624C639.071 264.624 643.28 265.448 647.157 267.058L650.991 257.822C645.823 255.677 640.303 254.624 634.482 254.624V264.624ZM647.157 267.058C651.116 268.701 654.438 270.907 657.186 273.656L664.258 266.584C660.521 262.848 656.077 259.933 650.991 257.822L647.157 267.058ZM656.841 266.967L650.185 275.159L657.947 281.465L664.603 273.273L656.841 266.967ZM657.359 274.549C654.215 271.798 650.739 269.656 646.942 268.157L643.27 277.459C645.958 278.52 648.456 280.047 650.773 282.075L657.359 274.549ZM647.091 268.219C643.164 266.521 638.702 265.76 633.842 265.76V275.76C637.686 275.76 640.733 276.364 643.121 277.397L647.091 268.219ZM633.842 265.76C628.689 265.76 623.988 266.901 620.172 269.644L626.008 277.764C627.654 276.581 630.12 275.76 633.842 275.76V265.76ZM620.111 269.689C616.141 272.634 614.122 276.839 614.122 281.768H624.122C624.122 279.87 624.748 278.699 626.069 277.719L620.111 269.689ZM614.122 281.768C614.122 284.293 614.67 286.739 615.916 288.955L624.632 284.053C624.342 283.538 624.122 282.827 624.122 281.768H614.122ZM616.114 289.278C617.314 291.078 618.832 292.633 620.602 293.96L626.602 285.96C625.641 285.239 624.941 284.49 624.434 283.73L616.114 289.278ZM620.769 294.08C622.411 295.209 624.213 296.204 626.158 297.08L630.262 287.96C628.794 287.3 627.524 286.589 626.435 285.84L620.769 294.08ZM626.43 297.192C628.182 297.86 629.979 298.57 631.821 299.324L635.607 290.068C633.694 289.286 631.822 288.545 629.99 287.848L626.43 297.192ZM631.707 299.276L643.099 304.268L647.113 295.108L635.721 290.116L631.707 299.276ZM643.301 304.351C645.688 305.275 647.844 306.338 649.781 307.53L655.022 299.014C652.523 297.476 649.815 296.149 646.911 295.025L643.301 304.351ZM649.903 307.603C651.698 308.638 653.203 309.852 654.454 311.235L661.87 304.525C659.878 302.324 657.544 300.466 654.901 298.941L649.903 307.603ZM654.626 311.416C655.816 312.606 656.773 314.061 657.476 315.852L666.784 312.196C665.61 309.208 663.921 306.568 661.698 304.344L654.626 311.416ZM657.5 315.91C658.144 317.493 658.538 319.516 658.538 322.088H668.538C668.538 318.516 667.993 315.163 666.76 312.138L657.5 315.91ZM658.538 322.088C658.538 324.709 658.006 327.156 656.943 329.481L666.037 333.639C667.705 329.991 668.538 326.123 668.538 322.088H658.538ZM656.943 329.481C655.902 331.757 654.367 333.771 652.261 335.537L658.687 343.199C661.872 340.528 664.347 337.336 666.037 333.639L656.943 329.481ZM652.261 335.537C650.154 337.305 647.517 338.773 644.261 339.883L647.487 349.349C651.74 347.899 655.504 345.869 658.687 343.199L652.261 335.537ZM644.261 339.883C641.119 340.954 637.413 341.536 633.074 341.536V351.536C638.293 351.536 643.119 350.838 647.487 349.349L644.261 339.883ZM712 345H707V350H712V345ZM712 271.912H717V266.912H712V271.912ZM684.992 271.912H679.992V276.912H684.992V271.912ZM684.992 261.16V256.16H679.992V261.16H684.992ZM751.808 261.16H756.808V256.16H751.808V261.16ZM751.808 271.912V276.912H756.808V271.912H751.808ZM724.8 271.912V266.912H719.8V271.912H724.8ZM724.8 345V350H729.8V345H724.8ZM717 345V271.912H707V345H717ZM712 266.912H684.992V276.912H712V266.912ZM689.992 271.912V261.16H679.992V271.912H689.992ZM684.992 266.16H751.808V256.16H684.992V266.16ZM746.808 261.16V271.912H756.808V261.16H746.808ZM751.808 266.912H724.8V276.912H751.808V266.912ZM719.8 271.912V345H729.8V271.912H719.8ZM724.8 340H712V350H724.8V340ZM780.558 335.144L776.602 338.201L776.619 338.223L776.636 338.245L780.558 335.144ZM773.774 321.32L768.961 322.674L768.97 322.708L768.981 322.743L773.774 321.32ZM773.774 284.456L768.987 283.012L768.976 283.047L768.966 283.082L773.774 284.456ZM780.558 270.888L776.636 267.787L776.636 267.787L780.558 270.888ZM790.926 262.568L793.046 267.096L793.085 267.078L793.124 267.059L790.926 262.568ZM817.294 262.568L815.096 267.059L815.135 267.078L815.174 267.096L817.294 262.568ZM827.534 270.888L823.567 273.932L823.589 273.961L823.612 273.989L827.534 270.888ZM834.318 321.32L839.111 322.743L839.111 322.743L834.318 321.32ZM827.534 335.144L823.578 332.087L823.572 332.093L823.567 332.1L827.534 335.144ZM817.294 343.592L819.492 348.083L819.492 348.083L817.294 343.592ZM818.19 326.824L813.954 324.168L813.939 324.191L813.925 324.214L818.19 326.824ZM818.19 279.208L813.943 281.846L813.966 281.884L813.99 281.922L818.19 279.208ZM789.902 279.208L785.684 276.524L785.678 276.532L785.673 276.54L789.902 279.208ZM789.902 326.824L785.637 329.434L785.651 329.457L785.666 329.48L789.902 326.824ZM804.11 341.536C800.038 341.536 796.403 340.706 793.124 339.101L788.728 348.083C793.471 350.404 798.624 351.536 804.11 351.536V341.536ZM793.124 339.101C789.817 337.483 786.94 335.154 784.48 332.043L776.636 338.245C779.978 342.472 784.014 345.776 788.728 348.083L793.124 339.101ZM784.514 332.087C782.058 328.908 780.047 324.882 778.567 319.897L768.981 322.743C770.743 328.68 773.255 333.871 776.602 338.201L784.514 332.087ZM778.587 319.966C777.199 315.029 776.47 309.31 776.47 302.76H766.47C766.47 310.034 767.277 316.688 768.961 322.674L778.587 319.966ZM776.47 302.76C776.47 296.299 777.198 290.673 778.582 285.83L768.966 283.082C767.278 288.991 766.47 295.567 766.47 302.76H776.47ZM778.561 285.9C780.036 281.008 782.038 277.077 784.48 273.989L776.636 267.787C773.275 272.037 770.754 277.152 768.987 283.012L778.561 285.9ZM784.48 273.989C786.927 270.894 789.778 268.626 793.046 267.096L788.806 258.04C784.052 260.265 779.991 263.543 776.636 267.787L784.48 273.989ZM793.124 267.059C796.403 265.454 800.038 264.624 804.11 264.624V254.624C798.624 254.624 793.471 255.756 788.728 258.077L793.124 267.059ZM804.11 264.624C808.181 264.624 811.817 265.454 815.096 267.059L819.492 258.077C814.749 255.756 809.596 254.624 804.11 254.624V264.624ZM815.174 267.096C818.427 268.619 821.217 270.869 823.567 273.932L831.501 267.844C828.219 263.568 824.183 260.272 819.414 258.04L815.174 267.096ZM823.612 273.989C826.054 277.077 828.056 281.008 829.531 285.9L839.105 283.012C837.338 277.152 834.817 272.037 831.456 267.787L823.612 273.989ZM829.531 285.9C830.984 290.719 831.75 296.321 831.75 302.76H841.75C841.75 295.546 840.894 288.945 839.105 283.012L829.531 285.9ZM831.75 302.76C831.75 309.289 830.983 314.984 829.525 319.897L839.111 322.743C840.895 316.734 841.75 310.055 841.75 302.76H831.75ZM829.525 319.897C828.045 324.882 826.034 328.908 823.578 332.087L831.49 338.201C834.837 333.871 837.349 328.68 839.111 322.743L829.525 319.897ZM823.567 332.1C821.204 335.18 818.388 337.49 815.096 339.101L819.492 348.083C824.221 345.769 828.232 342.447 831.501 338.188L823.567 332.1ZM815.096 339.101C811.817 340.706 808.181 341.536 804.11 341.536V351.536C809.596 351.536 814.749 350.404 819.492 348.083L815.096 339.101ZM804.11 340.4C812.007 340.4 818.197 336.392 822.455 329.434L813.925 324.214C811.186 328.691 807.989 330.4 804.11 330.4V340.4ZM822.426 329.48C826.708 322.65 828.566 313.564 828.566 302.76H818.566C818.566 312.607 816.84 319.563 813.954 324.168L822.426 329.48ZM828.566 302.76C828.566 292.122 826.706 283.175 822.39 276.494L813.99 281.922C816.842 286.334 818.566 293.089 818.566 302.76H828.566ZM822.437 276.57C818.163 269.689 811.971 265.76 804.11 265.76V275.76C808.025 275.76 811.22 277.463 813.943 281.846L822.437 276.57ZM804.11 265.76C796.259 265.76 790.041 269.677 785.684 276.524L794.12 281.892C796.931 277.475 800.185 275.76 804.11 275.76V265.76ZM785.673 276.54C781.465 283.211 779.654 292.138 779.654 302.76H789.654C789.654 293.072 791.341 286.298 794.131 281.876L785.673 276.54ZM779.654 302.76C779.654 313.548 781.464 322.615 785.637 329.434L794.167 324.214C791.342 319.598 789.654 312.623 789.654 302.76H779.654ZM785.666 329.48C790.006 336.404 796.223 340.4 804.11 340.4V330.4C800.22 330.4 796.965 328.678 794.138 324.168L785.666 329.48ZM861.404 345H856.404V350H861.404V345ZM861.404 261.16V256.16H856.404V261.16H861.404ZM875.1 261.16L879.588 258.956L878.215 256.16H875.1V261.16ZM899.548 310.952L904.121 308.931L904.08 308.839L904.036 308.748L899.548 310.952ZM907.356 328.616L902.783 330.637L904.099 333.616H907.356V328.616ZM907.74 328.616V333.616H913.049L912.731 328.317L907.74 328.616ZM906.588 315.176L901.608 315.621L901.612 315.669L901.617 315.718L906.588 315.176ZM905.948 261.16V256.16H900.948V261.16H905.948ZM918.236 261.16H923.236V256.16H918.236V261.16ZM918.236 345V350H923.236V345H918.236ZM904.54 345L900.052 347.204L901.425 350H904.54V345ZM880.092 295.208L875.519 297.229L875.559 297.321L875.604 297.412L880.092 295.208ZM872.284 277.544L876.857 275.523L875.541 272.544H872.284V277.544ZM871.9 277.544V272.544H866.597L866.909 277.838L871.9 277.544ZM872.924 291.112L867.945 291.565L867.949 291.614L867.955 291.664L872.924 291.112ZM873.692 345V350H878.692V345H873.692ZM866.404 345V261.16H856.404V345H866.404ZM861.404 266.16H875.1V256.16H861.404V266.16ZM870.612 263.364L895.06 313.156L904.036 308.748L879.588 258.956L870.612 263.364ZM894.975 312.973L902.783 330.637L911.929 326.595L904.121 308.931L894.975 312.973ZM907.356 333.616H907.74V323.616H907.356V333.616ZM912.731 328.317C912.47 323.961 912.078 319.4 911.558 314.634L901.617 315.718C902.122 320.339 902.498 324.738 902.749 328.915L912.731 328.317ZM911.568 314.731C911.154 310.094 910.948 305.55 910.948 301.096H900.948C900.948 305.858 901.168 310.7 901.608 315.621L911.568 314.731ZM910.948 301.096V261.16H900.948V301.096H910.948ZM905.948 266.16H918.236V256.16H905.948V266.16ZM913.236 261.16V345H923.236V261.16H913.236ZM918.236 340H904.54V350H918.236V340ZM909.028 342.796L884.58 293.004L875.604 297.412L900.052 347.204L909.028 342.796ZM884.665 293.187L876.857 275.523L867.711 279.565L875.519 297.229L884.665 293.187ZM872.284 272.544H871.9V282.544H872.284V272.544ZM866.909 277.838C867.168 282.247 867.513 286.823 867.945 291.565L877.903 290.659C877.481 286.015 877.144 281.545 876.891 277.25L866.909 277.838ZM867.955 291.664C868.447 296.093 868.692 300.474 868.692 304.808H878.692C878.692 300.096 878.425 295.347 877.893 290.56L867.955 291.664ZM868.692 304.808V345H878.692V304.808H868.692ZM873.692 340H861.404V350H873.692V340ZM314.913 515H309.913V520H314.913V515ZM314.913 431.16V426.16H309.913V431.16H314.913ZM367.393 431.16H372.393V426.16H367.393V431.16ZM367.393 441.912V446.912H372.393V441.912H367.393ZM327.713 441.912V436.912H322.713V441.912H327.713ZM327.713 467.896H322.713V472.896H327.713V467.896ZM361.377 467.896H366.377V462.896H361.377V467.896ZM361.377 478.776V483.776H366.377V478.776H361.377ZM327.713 478.776V473.776H322.713V478.776H327.713ZM327.713 515V520H332.713V515H327.713ZM319.913 515V431.16H309.913V515H319.913ZM314.913 436.16H367.393V426.16H314.913V436.16ZM362.393 431.16V441.912H372.393V431.16H362.393ZM367.393 436.912H327.713V446.912H367.393V436.912ZM322.713 441.912V467.896H332.713V441.912H322.713ZM327.713 472.896H361.377V462.896H327.713V472.896ZM356.377 467.896V478.776H366.377V467.896H356.377ZM361.377 473.776H327.713V483.776H361.377V473.776ZM322.713 478.776V515H332.713V478.776H322.713ZM327.713 510H314.913V520H327.713V510ZM398.447 515H393.447V520H398.447V515ZM398.447 431.16V426.16H393.447V431.16H398.447ZM451.183 431.16H456.183V426.16H451.183V431.16ZM451.183 441.912V446.912H456.183V441.912H451.183ZM411.247 441.912V436.912H406.247V441.912H411.247ZM411.247 465.848H406.247V470.848H411.247V465.848ZM445.039 465.848H450.039V460.848H445.039V465.848ZM445.039 476.6V481.6H450.039V476.6H445.039ZM411.247 476.6V471.6H406.247V476.6H411.247ZM411.247 504.248H406.247V509.248H411.247V504.248ZM452.463 504.248H457.463V499.248H452.463V504.248ZM452.463 515V520H457.463V515H452.463ZM403.447 515V431.16H393.447V515H403.447ZM398.447 436.16H451.183V426.16H398.447V436.16ZM446.183 431.16V441.912H456.183V431.16H446.183ZM451.183 436.912H411.247V446.912H451.183V436.912ZM406.247 441.912V465.848H416.247V441.912H406.247ZM411.247 470.848H445.039V460.848H411.247V470.848ZM440.039 465.848V476.6H450.039V465.848H440.039ZM445.039 471.6H411.247V481.6H445.039V471.6ZM406.247 476.6V504.248H416.247V476.6H406.247ZM411.247 509.248H452.463V499.248H411.247V509.248ZM447.463 504.248V515H457.463V504.248H447.463ZM452.463 510H398.447V520H452.463V510ZM481.981 515H476.981V520H481.981V515ZM481.981 431.16V426.16H476.981V431.16H481.981ZM521.021 432.44L519.888 437.31L519.942 437.323L519.997 437.334L521.021 432.44ZM530.493 436.536L527.514 440.551L527.586 440.605L527.66 440.656L530.493 436.536ZM536.765 443.96L532.244 446.095L532.268 446.146L532.293 446.196L536.765 443.96ZM534.205 470.968L530.35 467.784L530.329 467.809L530.309 467.834L534.205 470.968ZM521.405 479.288L519.961 474.501L513.921 476.323L517.074 481.787L521.405 479.288ZM542.013 515V520H550.671L546.344 512.501L542.013 515ZM527.549 515L523.187 517.444L524.619 520H527.549V515ZM508.477 480.952L512.839 478.508L511.407 475.952H508.477V480.952ZM494.781 480.952V475.952H489.781V480.952H494.781ZM494.781 515V520H499.781V515H494.781ZM494.781 470.584H489.781V475.584H494.781V470.584ZM521.533 466.872L524.566 470.847L524.599 470.822L524.631 470.796L521.533 466.872ZM521.533 444.6L518.785 448.777L518.824 448.803L518.863 448.827L521.533 444.6ZM494.781 441.4V436.4H489.781V441.4H494.781ZM486.981 515V431.16H476.981V515H486.981ZM481.981 436.16H508.989V426.16H481.981V436.16ZM508.989 436.16C513.017 436.16 516.643 436.555 519.888 437.31L522.154 427.57C518.061 426.618 513.665 426.16 508.989 426.16V436.16ZM519.997 437.334C523.056 437.974 525.524 439.075 527.514 440.551L533.472 432.521C530.171 430.071 526.324 428.442 522.045 427.546L519.997 437.334ZM527.66 440.656C529.644 442.02 531.161 443.801 532.244 446.095L541.286 441.825C539.468 437.975 536.804 434.807 533.326 432.416L527.66 440.656ZM532.293 446.196C533.39 448.39 534.069 451.369 534.069 455.352H544.069C544.069 450.289 543.212 445.674 541.237 441.724L532.293 446.196ZM534.069 455.352C534.069 461 532.669 464.976 530.35 467.784L538.06 474.152C542.226 469.109 544.069 462.675 544.069 455.352H534.069ZM530.309 467.834C527.855 470.885 524.487 473.136 519.961 474.501L522.849 484.075C529.075 482.197 534.24 478.902 538.101 474.102L530.309 467.834ZM517.074 481.787L537.682 517.499L546.344 512.501L525.736 476.789L517.074 481.787ZM542.013 510H527.549V520H542.013V510ZM531.911 512.556L512.839 478.508L504.115 483.396L523.187 517.444L531.911 512.556ZM508.477 475.952H494.781V485.952H508.477V475.952ZM489.781 480.952V515H499.781V480.952H489.781ZM494.781 510H481.981V520H494.781V510ZM494.781 475.584H507.453V465.584H494.781V475.584ZM507.453 475.584C514.166 475.584 520.11 474.248 524.566 470.847L518.5 462.897C516.471 464.445 513.029 465.584 507.453 465.584V475.584ZM524.631 470.796C529.36 467.063 531.397 461.599 531.397 455.352H521.397C521.397 459.345 520.192 461.561 518.435 462.948L524.631 470.796ZM531.397 455.352C531.397 449.159 529.367 443.634 524.203 440.373L518.863 448.827C520.184 449.662 521.397 451.305 521.397 455.352H531.397ZM524.281 440.423C519.875 437.524 514.052 436.4 507.453 436.4V446.4C513.142 446.4 516.706 447.409 518.785 448.777L524.281 440.423ZM507.453 436.4H494.781V446.4H507.453V436.4ZM489.781 441.4V470.584H499.781V441.4H489.781ZM565.899 515H560.899V520H565.899V515ZM565.899 431.16V426.16H560.899V431.16H565.899ZM579.595 431.16L584.083 428.956L582.71 426.16H579.595V431.16ZM604.043 480.952L608.616 478.931L608.576 478.839L608.531 478.748L604.043 480.952ZM611.851 498.616L607.278 500.637L608.594 503.616H611.851V498.616ZM612.235 498.616V503.616H617.544L617.226 498.317L612.235 498.616ZM611.083 485.176L606.103 485.621L606.107 485.669L606.113 485.718L611.083 485.176ZM610.443 431.16V426.16H605.443V431.16H610.443ZM622.731 431.16H627.731V426.16H622.731V431.16ZM622.731 515V520H627.731V515H622.731ZM609.035 515L604.547 517.204L605.92 520H609.035V515ZM584.587 465.208L580.014 467.229L580.055 467.321L580.099 467.412L584.587 465.208ZM576.779 447.544L581.352 445.523L580.036 442.544H576.779V447.544ZM576.395 447.544V442.544H571.092L571.404 447.838L576.395 447.544ZM577.419 461.112L572.44 461.565L572.444 461.614L572.45 461.664L577.419 461.112ZM578.187 515V520H583.187V515H578.187ZM570.899 515V431.16H560.899V515H570.899ZM565.899 436.16H579.595V426.16H565.899V436.16ZM575.107 433.364L599.555 483.156L608.531 478.748L584.083 428.956L575.107 433.364ZM599.47 482.973L607.278 500.637L616.424 496.595L608.616 478.931L599.47 482.973ZM611.851 503.616H612.235V493.616H611.851V503.616ZM617.226 498.317C616.965 493.961 616.573 489.4 616.054 484.634L606.113 485.718C606.617 490.339 606.993 494.738 607.244 498.915L617.226 498.317ZM616.063 484.731C615.649 480.094 615.443 475.55 615.443 471.096H605.443C605.443 475.858 605.664 480.7 606.103 485.621L616.063 484.731ZM615.443 471.096V431.16H605.443V471.096H615.443ZM610.443 436.16H622.731V426.16H610.443V436.16ZM617.731 431.16V515H627.731V431.16H617.731ZM622.731 510H609.035V520H622.731V510ZM613.523 512.796L589.075 463.004L580.099 467.412L604.547 517.204L613.523 512.796ZM589.16 463.187L581.352 445.523L572.206 449.565L580.014 467.229L589.16 463.187ZM576.779 442.544H576.395V452.544H576.779V442.544ZM571.404 447.838C571.663 452.247 572.008 456.823 572.44 461.565L582.399 460.659C581.976 456.015 581.639 451.545 581.386 447.25L571.404 447.838ZM572.45 461.664C572.942 466.093 573.187 470.474 573.187 474.808H583.187C583.187 470.096 582.92 465.347 582.388 460.56L572.45 461.664ZM573.187 474.808V515H583.187V474.808H573.187ZM578.187 510H565.899V520H578.187V510ZM671.705 469.304L676.494 470.741L676.497 470.733L676.499 470.724L671.705 469.304ZM668.249 480.824L663.46 479.387L661.529 485.824H668.249V480.824ZM691.417 480.824V485.824H698.137L696.206 479.387L691.417 480.824ZM687.961 469.304L683.167 470.724L683.169 470.733L683.172 470.741L687.961 469.304ZM680.025 441.4L684.876 440.187L683.929 436.4H680.025V441.4ZM679.513 441.4V436.4H675.609L674.662 440.187L679.513 441.4ZM675.673 455.48L670.879 454.06L670.867 454.101L670.855 454.142L675.673 455.48ZM644.953 515L640.205 513.434L638.039 520H644.953V515ZM672.601 431.16V426.16H668.985L667.853 429.594L672.601 431.16ZM687.449 431.16L692.197 429.594L691.065 426.16H687.449V431.16ZM715.097 515V520H722.011L719.845 513.434L715.097 515ZM701.529 515L696.737 516.427L697.801 520H701.529V515ZM694.361 490.936L699.153 489.509L698.089 485.936H694.361V490.936ZM665.177 490.936V485.936H661.449L660.385 489.509L665.177 490.936ZM658.009 515V520H661.737L662.801 516.427L658.009 515ZM666.916 467.867L663.46 479.387L673.038 482.261L676.494 470.741L666.916 467.867ZM668.249 485.824H691.417V475.824H668.249V485.824ZM696.206 479.387L692.75 467.867L683.172 470.741L686.628 482.261L696.206 479.387ZM692.755 467.884C691.39 463.276 690.024 458.668 688.659 454.06L679.071 456.9C680.436 461.508 681.802 466.116 683.167 470.724L692.755 467.884ZM688.659 454.06C687.315 449.522 686.053 444.898 684.876 440.187L675.174 442.613C676.386 447.459 677.685 452.222 679.071 456.9L688.659 454.06ZM680.025 436.4H679.513V446.4H680.025V436.4ZM674.662 440.187C673.485 444.898 672.223 449.522 670.879 454.06L680.467 456.9C681.853 452.222 683.152 447.459 684.364 442.613L674.662 440.187ZM670.855 454.142C669.583 458.722 668.268 463.303 666.911 467.884L676.499 470.724C677.872 466.089 679.203 461.454 680.491 456.818L670.855 454.142ZM649.701 516.566L677.349 432.726L667.853 429.594L640.205 513.434L649.701 516.566ZM672.601 436.16H687.449V426.16H672.601V436.16ZM682.701 432.726L710.349 516.566L719.845 513.434L692.197 429.594L682.701 432.726ZM715.097 510H701.529V520H715.097V510ZM706.321 513.573L699.153 489.509L689.569 492.363L696.737 516.427L706.321 513.573ZM694.361 485.936H665.177V495.936H694.361V485.936ZM660.385 489.509L653.217 513.573L662.801 516.427L669.969 492.363L660.385 489.509ZM658.009 510H644.953V520H658.009V510ZM737.319 515H732.319V520H737.319V515ZM737.319 431.16V426.16H732.319V431.16H737.319ZM751.015 431.16L755.503 428.956L754.13 426.16H751.015V431.16ZM775.463 480.952L780.036 478.931L779.995 478.839L779.951 478.748L775.463 480.952ZM783.271 498.616L778.698 500.637L780.014 503.616H783.271V498.616ZM783.655 498.616V503.616H788.964L788.646 498.317L783.655 498.616ZM782.503 485.176L777.523 485.621L777.527 485.669L777.532 485.718L782.503 485.176ZM781.863 431.16V426.16H776.863V431.16H781.863ZM794.151 431.16H799.151V426.16H794.151V431.16ZM794.151 515V520H799.151V515H794.151ZM780.455 515L775.967 517.204L777.34 520H780.455V515ZM756.007 465.208L751.434 467.229L751.474 467.321L751.519 467.412L756.007 465.208ZM748.199 447.544L752.772 445.523L751.456 442.544H748.199V447.544ZM747.815 447.544V442.544H742.512L742.824 447.838L747.815 447.544ZM748.839 461.112L743.859 461.565L743.864 461.614L743.87 461.664L748.839 461.112ZM749.607 515V520H754.607V515H749.607ZM742.319 515V431.16H732.319V515H742.319ZM737.319 436.16H751.015V426.16H737.319V436.16ZM746.527 433.364L770.975 483.156L779.951 478.748L755.503 428.956L746.527 433.364ZM770.89 482.973L778.698 500.637L787.844 496.595L780.036 478.931L770.89 482.973ZM783.271 503.616H783.655V493.616H783.271V503.616ZM788.646 498.317C788.385 493.961 787.993 489.4 787.473 484.634L777.532 485.718C778.037 490.339 778.413 494.738 778.664 498.915L788.646 498.317ZM787.483 484.731C787.069 480.094 786.863 475.55 786.863 471.096H776.863C776.863 475.858 777.083 480.7 777.523 485.621L787.483 484.731ZM786.863 471.096V431.16H776.863V471.096H786.863ZM781.863 436.16H794.151V426.16H781.863V436.16ZM789.151 431.16V515H799.151V431.16H789.151ZM794.151 510H780.455V520H794.151V510ZM784.943 512.796L760.495 463.004L751.519 467.412L775.967 517.204L784.943 512.796ZM760.58 463.187L752.772 445.523L743.626 449.565L751.434 467.229L760.58 463.187ZM748.199 442.544H747.815V452.544H748.199V442.544ZM742.824 447.838C743.083 452.247 743.428 456.823 743.859 461.565L753.818 460.659C753.396 456.015 753.059 451.545 752.806 447.25L742.824 447.838ZM743.87 461.664C744.362 466.093 744.607 470.474 744.607 474.808H754.607C754.607 470.096 754.34 465.347 753.808 460.56L743.87 461.664ZM744.607 474.808V515H754.607V474.808H744.607ZM749.607 510H737.319V520H749.607V510ZM823.669 515H818.669V520H823.669V515ZM823.669 431.16V426.16H818.669V431.16H823.669ZM873.973 441.656L870.372 445.125L870.383 445.136L870.394 445.148L873.973 441.656ZM874.101 504.12L870.439 500.716L870.439 500.716L874.101 504.12ZM836.469 504.632H831.469V509.632H836.469V504.632ZM864.117 496.568L860.321 493.314L860.306 493.332L860.291 493.349L864.117 496.568ZM864.117 449.336L860.343 452.615L860.371 452.648L860.401 452.681L864.117 449.336ZM836.469 441.528V436.528H831.469V441.528H836.469ZM828.669 515V431.16H818.669V515H828.669ZM823.669 436.16H844.917V426.16H823.669V436.16ZM844.917 436.16C856.615 436.16 864.833 439.376 870.372 445.125L877.574 438.187C869.63 429.941 858.478 426.16 844.917 426.16V436.16ZM870.394 445.148C875.995 450.888 879.213 459.792 879.213 472.76H889.213C889.213 458.251 885.605 446.418 877.552 438.164L870.394 445.148ZM879.213 472.76C879.213 485.633 876.04 494.689 870.439 500.716L877.763 507.524C885.645 499.044 889.213 487.193 889.213 472.76H879.213ZM870.439 500.716C864.863 506.716 856.814 510 845.557 510V520C858.876 520 869.857 516.031 877.763 507.524L870.439 500.716ZM845.557 510H823.669V520H845.557V510ZM836.469 509.632H844.149V499.632H836.469V509.632ZM844.149 509.632C854.012 509.632 862.239 506.568 867.943 499.787L860.291 493.349C856.95 497.32 851.865 499.632 844.149 499.632V509.632ZM867.913 499.822C873.598 493.19 876.029 483.89 876.029 472.76H866.029C866.029 482.622 863.853 489.194 860.321 493.314L867.913 499.822ZM876.029 472.76C876.029 461.654 873.608 452.407 867.834 445.991L860.401 452.681C863.842 456.505 866.029 462.874 866.029 472.76H876.029ZM867.891 446.057C862.171 439.473 853.959 436.528 844.149 436.528V446.528C851.917 446.528 857.018 448.789 860.343 452.615L867.891 446.057ZM844.149 436.528H836.469V446.528H844.149V436.528ZM831.469 441.528V504.632H841.469V441.528H831.469ZM912.707 515H907.707V520H912.707V515ZM912.707 431.16V426.16H907.707V431.16H912.707ZM965.443 431.16H970.443V426.16H965.443V431.16ZM965.443 441.912V446.912H970.443V441.912H965.443ZM925.507 441.912V436.912H920.507V441.912H925.507ZM925.507 465.848H920.507V470.848H925.507V465.848ZM959.299 465.848H964.299V460.848H959.299V465.848ZM959.299 476.6V481.6H964.299V476.6H959.299ZM925.507 476.6V471.6H920.507V476.6H925.507ZM925.507 504.248H920.507V509.248H925.507V504.248ZM966.723 504.248H971.723V499.248H966.723V504.248ZM966.723 515V520H971.723V515H966.723ZM917.707 515V431.16H907.707V515H917.707ZM912.707 436.16H965.443V426.16H912.707V436.16ZM960.443 431.16V441.912H970.443V431.16H960.443ZM965.443 436.912H925.507V446.912H965.443V436.912ZM920.507 441.912V465.848H930.507V441.912H920.507ZM925.507 470.848H959.299V460.848H925.507V470.848ZM954.299 465.848V476.6H964.299V465.848H954.299ZM959.299 471.6H925.507V481.6H959.299V471.6ZM920.507 476.6V504.248H930.507V476.6H920.507ZM925.507 509.248H966.723V499.248H925.507V509.248ZM961.723 504.248V515H971.723V504.248H961.723ZM966.723 510H912.707V520H966.723V510ZM1006.35 513.336L1004.39 517.936L1004.42 517.949L1004.46 517.963L1006.35 513.336ZM992.529 504.12L988.725 500.875L985.695 504.428L989.032 507.693L992.529 504.12ZM999.953 495.416L1003.34 491.738L999.52 488.219L996.149 492.171L999.953 495.416ZM1010.96 502.712L1008.88 507.257L1008.92 507.275L1008.96 507.293L1010.96 502.712ZM1036.3 502.2L1039.32 506.185L1039.33 506.179L1039.34 506.172L1036.3 502.2ZM1039.5 488.504L1035.03 490.74L1035.09 490.849L1035.15 490.955L1039.5 488.504ZM1036.56 484.92L1033.44 488.824L1033.44 488.824L1036.56 484.92ZM1031.95 482.232L1029.8 486.746L1029.89 486.789L1029.98 486.828L1031.95 482.232ZM1026.06 479.672L1024.03 484.239L1024.12 484.278L1024.21 484.314L1026.06 479.672ZM1014.29 474.424L1016.32 469.857L1016.24 469.818L1016.15 469.782L1014.29 474.424ZM1007.89 471.352L1005.32 475.639L1005.38 475.678L1005.45 475.715L1007.89 471.352ZM1002.13 466.872L998.508 470.32L998.55 470.364L998.593 470.408L1002.13 466.872ZM997.905 460.728L993.309 462.698L993.352 462.798L993.4 462.897L997.905 460.728ZM998.417 443.448L1002.92 445.629L1002.92 445.629L998.417 443.448ZM1004.18 436.152L1001.05 432.248L1001.02 432.274L1000.99 432.3L1004.18 436.152ZM1013.14 431.416L1014.68 436.171L1014.72 436.16L1014.75 436.148L1013.14 431.416ZM1050.9 440.12L1054.78 443.273L1057.62 439.773L1054.43 436.584L1050.9 440.12ZM1044.24 448.312L1040.95 452.075L1044.85 455.49L1048.12 451.465L1044.24 448.312ZM1035.28 442.808L1033.3 447.397L1033.37 447.429L1033.45 447.459L1035.28 442.808ZM1013.26 443.704L1010.35 439.644L1010.32 439.666L1010.29 439.689L1013.26 443.704ZM1010.45 456.504L1006.09 458.955L1006.18 459.12L1006.29 459.278L1010.45 456.504ZM1013.78 459.96L1010.78 463.96L1010.86 464.022L1010.94 464.08L1013.78 459.96ZM1018.38 462.52L1016.33 467.08L1016.47 467.14L1016.6 467.192L1018.38 462.52ZM1023.89 464.696L1025.9 460.116L1025.84 460.092L1025.78 460.068L1023.89 464.696ZM1035.28 469.688L1033.27 474.268L1033.37 474.311L1033.48 474.351L1035.28 469.688ZM1042.58 473.272L1039.96 477.53L1040.02 477.567L1040.08 477.603L1042.58 473.272ZM1048.34 477.88L1044.63 481.235L1044.71 481.327L1044.8 481.416L1048.34 477.88ZM1052.3 484.024L1047.65 485.852L1047.66 485.881L1047.67 485.91L1052.3 484.024ZM1051.66 501.56L1056.21 503.639L1056.21 503.639L1051.66 501.56ZM1045.65 509.368L1042.44 505.537L1042.44 505.537L1045.65 509.368ZM1036.05 514.616L1037.66 519.349L1037.66 519.349L1036.05 514.616ZM1023.25 511.536C1017.79 511.536 1012.81 510.578 1008.25 508.709L1004.46 517.963C1010.31 520.361 1016.59 521.536 1023.25 521.536V511.536ZM1008.31 508.736C1003.67 506.759 999.589 504.034 996.026 500.547L989.032 507.693C993.49 512.057 998.62 515.475 1004.39 517.936L1008.31 508.736ZM996.333 507.365L1003.76 498.661L996.149 492.171L988.725 500.875L996.333 507.365ZM996.566 499.094C1000.2 502.444 1004.31 505.166 1008.88 507.257L1013.04 498.167C1009.42 496.503 1006.19 494.361 1003.34 491.738L996.566 499.094ZM1008.96 507.293C1013.7 509.37 1018.74 510.4 1024.02 510.4V500.4C1020.08 500.4 1016.41 499.638 1012.97 498.131L1008.96 507.293ZM1024.02 510.4C1029.94 510.4 1035.29 509.241 1039.32 506.185L1033.29 498.215C1031.69 499.425 1028.84 500.4 1024.02 500.4V510.4ZM1039.34 506.172C1043.42 503.056 1045.66 498.758 1045.66 493.624H1035.66C1035.66 495.487 1035 496.907 1033.27 498.228L1039.34 506.172ZM1045.66 493.624C1045.66 490.974 1045.16 488.362 1043.86 486.053L1035.15 490.955C1035.38 491.377 1035.66 492.178 1035.66 493.624H1045.66ZM1043.98 486.268C1042.95 484.209 1041.49 482.458 1039.68 481.016L1033.44 488.824C1034.19 489.43 1034.7 490.069 1035.03 490.74L1043.98 486.268ZM1039.68 481.016C1037.99 479.663 1036.05 478.549 1033.92 477.636L1029.98 486.828C1031.44 487.451 1032.57 488.129 1033.44 488.824L1039.68 481.016ZM1034.1 477.718C1032.2 476.812 1030.14 475.917 1027.92 475.03L1024.21 484.314C1026.26 485.134 1028.12 485.945 1029.8 486.746L1034.1 477.718ZM1028.1 475.105L1016.32 469.857L1012.25 478.991L1024.03 484.239L1028.1 475.105ZM1016.15 469.782C1014.23 469.014 1012.29 468.085 1010.33 466.989L1005.45 475.715C1007.76 477.008 1010.09 478.128 1012.43 479.066L1016.15 469.782ZM1010.46 467.065C1008.67 465.988 1007.07 464.745 1005.66 463.336L998.593 470.408C1000.6 472.412 1002.84 474.156 1005.32 475.639L1010.46 467.065ZM1005.75 463.424C1004.41 462.022 1003.3 460.409 1002.41 458.559L993.4 462.897C994.728 465.655 996.43 468.138 998.508 470.32L1005.75 463.424ZM1002.5 458.758C1001.79 457.094 1001.37 455.052 1001.37 452.536H991.369C991.369 456.164 991.975 459.583 993.309 462.698L1002.5 458.758ZM1001.37 452.536C1001.37 450.021 1001.89 447.741 1002.92 445.629L993.918 441.267C992.211 444.787 991.369 448.566 991.369 452.536H1001.37ZM1002.92 445.629C1003.96 443.475 1005.43 441.608 1007.36 440.004L1000.99 432.3C997.978 434.792 995.604 437.789 993.918 441.267L1002.92 445.629ZM1007.3 440.056C1009.35 438.419 1011.79 437.112 1014.68 436.171L1011.59 426.661C1007.66 427.939 1004.13 429.789 1001.05 432.248L1007.3 440.056ZM1014.75 436.148C1017.67 435.152 1020.95 434.624 1024.66 434.624V424.624C1020 424.624 1015.6 425.29 1011.52 426.684L1014.75 436.148ZM1024.66 434.624C1029.25 434.624 1033.45 435.448 1037.33 437.058L1041.17 427.822C1036 425.677 1030.48 424.624 1024.66 424.624V434.624ZM1037.33 437.058C1041.29 438.701 1044.61 440.907 1047.36 443.656L1054.43 436.584C1050.7 432.848 1046.25 429.933 1041.17 427.822L1037.33 437.058ZM1047.02 436.967L1040.36 445.159L1048.12 451.465L1054.78 443.273L1047.02 436.967ZM1047.53 444.549C1044.39 441.798 1040.91 439.656 1037.12 438.157L1033.45 447.459C1036.13 448.52 1038.63 450.047 1040.95 452.075L1047.53 444.549ZM1037.27 438.219C1033.34 436.521 1028.88 435.76 1024.02 435.76V445.76C1027.86 445.76 1030.91 446.364 1033.3 447.397L1037.27 438.219ZM1024.02 435.76C1018.86 435.76 1014.16 436.901 1010.35 439.644L1016.18 447.764C1017.83 446.581 1020.29 445.76 1024.02 445.76V435.76ZM1010.29 439.689C1006.32 442.634 1004.3 446.839 1004.3 451.768H1014.3C1014.3 449.87 1014.92 448.699 1016.24 447.719L1010.29 439.689ZM1004.3 451.768C1004.3 454.293 1004.84 456.739 1006.09 458.955L1014.81 454.053C1014.52 453.538 1014.3 452.827 1014.3 451.768H1004.3ZM1006.29 459.278C1007.49 461.078 1009.01 462.633 1010.78 463.96L1016.78 455.96C1015.82 455.239 1015.12 454.49 1014.61 453.73L1006.29 459.278ZM1010.94 464.08C1012.59 465.209 1014.39 466.204 1016.33 467.08L1020.44 457.96C1018.97 457.3 1017.7 456.589 1016.61 455.84L1010.94 464.08ZM1016.6 467.192C1018.36 467.86 1020.15 468.57 1022 469.324L1025.78 460.068C1023.87 459.286 1022 458.545 1020.16 457.848L1016.6 467.192ZM1021.88 469.276L1033.27 474.268L1037.29 465.108L1025.9 460.116L1021.88 469.276ZM1033.48 474.351C1035.86 475.275 1038.02 476.338 1039.96 477.53L1045.2 469.014C1042.7 467.476 1039.99 466.149 1037.09 465.025L1033.48 474.351ZM1040.08 477.603C1041.87 478.638 1043.38 479.852 1044.63 481.235L1052.04 474.525C1050.05 472.324 1047.72 470.466 1045.08 468.941L1040.08 477.603ZM1044.8 481.416C1045.99 482.606 1046.95 484.061 1047.65 485.852L1056.96 482.196C1055.78 479.208 1054.1 476.568 1051.87 474.344L1044.8 481.416ZM1047.67 485.91C1048.32 487.493 1048.71 489.516 1048.71 492.088H1058.71C1058.71 488.516 1058.17 485.163 1056.94 482.138L1047.67 485.91ZM1048.71 492.088C1048.71 494.709 1048.18 497.156 1047.12 499.481L1056.21 503.639C1057.88 499.991 1058.71 496.123 1058.71 492.088H1048.71ZM1047.12 499.481C1046.08 501.757 1044.54 503.771 1042.44 505.537L1048.86 513.199C1052.05 510.528 1054.52 507.336 1056.21 503.639L1047.12 499.481ZM1042.44 505.537C1040.33 507.305 1037.69 508.773 1034.44 509.883L1037.66 519.349C1041.92 517.899 1045.68 515.869 1048.86 513.199L1042.44 505.537ZM1034.44 509.883C1031.29 510.954 1027.59 511.536 1023.25 511.536V521.536C1028.47 521.536 1033.29 520.838 1037.66 519.349L1034.44 509.883Z" fill="#FF0000"/>
</svg>
